Coordinates
version=1
nRows=8
nColumns=63
inDegrees=yes

Units are S.I. units (second, meters, Newtons, ...)
If the header above contains a line with 'inDegrees', this indicates whether rotational values are in degrees (yes) or radians (no).

endheader
time	pelvis_tilt	pelvis_list	pelvis_rotation	pelvis_tx	pelvis_ty	pelvis_tz	hip_flexion_r	hip_adduction_r	hip_rotation_r	knee_angle_r	knee_angle_r_beta	ankle_angle_r	subtalar_angle_r	mtp_angle_r	hip_flexion_l	hip_adduction_l	hip_rotation_l	knee_angle_l	knee_angle_l_beta	ankle_angle_l	subtalar_angle_l	mtp_angle_l	L5_S1_Flex_Ext	L5_S1_Lat_Bending	L5_S1_axial_rotation	L4_L5_Flex_Ext	L4_L5_Lat_Bending	L4_L5_axial_rotation	L3_L4_Flex_Ext	L3_L4_Lat_Bending	L3_L4_axial_rotation	L2_L3_Flex_Ext	L2_L3_Lat_Bending	L2_L3_axial_rotation	L1_L2_Flex_Ext	L1_L2_Lat_Bending	L1_L2_axial_rotation	L1_T12_Flex_Ext	L1_T12_Lat_Bending	L1_T12_axial_rotation	Abs_r3	Abs_r2	Abs_r1	Abs_t1	Abs_t2	neck_flexion	neck_bending	neck_rotation	arm_flex_r	arm_add_r	arm_rot_r	elbow_flex_r	pro_sup_r	wrist_flex_r	wrist_dev_r	arm_flex_l	arm_add_l	arm_rot_l	elbow_flex_l	pro_sup_l	wrist_flex_l	wrist_dev_l
      1.37500000	      5.68462290	     -8.91053830	     94.52095284	      0.24670382	      0.86634477	      0.67536527	     11.66821963	      5.63838824	      3.65574499	      8.65166905	      0.15100011	     21.10354560	     -1.27840322	      0.00000000	     13.19984407	     -7.62824523	     -1.89827112	     10.72212462	      0.18713638	     24.19957906	      2.84289709	      0.00000000	     -0.00800873	     -0.58266893	      1.63400675	     -0.01487301	     -0.77494968	      1.73613217	     -0.01315754	     -1.41670125	      1.73613217	     -0.00915318	     -1.41670125	      1.42975591	     -0.00743691	     -1.18817849	      1.32763049	     -0.00457619	     -0.90255418	      1.22550506	     -0.05720555	     -6.59126751	      9.08785535	      0.00000000	      0.00000000	      9.12446155	      4.48783084	    -17.02662958	      7.48390312	     -7.71543709	     26.42037126	     39.85941389	     66.03948031	     -8.69436619	      0.51249619	     23.23488598	      4.56820960	    140.43965713	      0.84764679	      1.66197258	    -12.06378553	    -22.18962031
      1.40625000	      6.43460372	     -9.82123957	     95.19646886	      0.24461371	      0.86447906	      0.67684680	     12.91259716	      6.07409764	      2.96957307	      8.84883211	      0.15444126	     20.99700098	     -1.32110689	      0.00000000	     14.55273062	     -8.06562894	     -1.09610928	     10.99708336	      0.19193531	     24.19658437	      2.54782891	      0.00000000	      0.00996483	     -0.56537272	      1.96596535	      0.01850569	     -0.75194572	      2.08883818	      0.01637122	     -1.37464724	      2.08883818	      0.01138881	     -1.37464724	      1.72021968	      0.00925334	     -1.15290805	      1.59734685	      0.00569391	     -0.87576235	      1.47447401	      0.07117781	     -6.39560930	     10.93410948	      0.00000000	      0.00000000	      8.74458934	      4.98980823	    -20.02267295	      6.94996735	     -6.31518079	     24.30990492	     41.76691718	     64.86975578	     -7.67932873	      0.00247494	     23.49182758	      6.47623814	    138.86802451	      1.47139093	      1.48737538	     -9.49952450	    -23.35602071
      1.43750000	      7.48879128	    -10.66347053	     95.59335819	      0.24154761	      0.86272454	      0.67846749	     14.10837873	      6.77137109	      2.24119410	      8.97813597	      0.15669803	     20.78552043	     -0.98215864	      0.00000000	     15.82909430	     -8.77278763	     -0.21454827	     11.31597520	      0.19750103	     24.41925393	      1.89771318	      0.00000000	      0.04036260	     -0.46388113	      2.31129997	      0.07495739	     -0.61696190	      2.45575622	      0.06631172	     -1.12788057	      2.45575622	      0.04613042	     -1.12788057	      2.02238748	      0.03748071	     -0.94594639	      1.87793123	      0.02306319	     -0.71855186	      1.73347498	      0.28830603	     -5.24751607	     12.85475706	      0.00000000	      0.00000000	      8.61138721	      5.53990057	    -22.27554169	      6.28003157	     -5.15829534	     22.56478971	     43.00260431	     64.41492832	     -6.70759282	      0.00629848	     23.89790733	      8.16363660	    135.32186394	      3.12466785	      1.47386121	     -6.78908446	    -23.71361681
      1.46875000	      6.71086531	    -11.95211181	     95.44196890	      0.24297091	      0.85968442	      0.67842970	     15.66805820	      5.91916386	      2.25521206	      9.53201491	      0.16636504	     21.56025631	     -0.77703998	      0.00000000	     17.03200869	     -7.85809338	      0.33929709	     11.35863035	      0.19824550	     24.17808646	      0.59782950	      0.00000000	      0.08982800	     -0.57272141	      1.93854656	      0.16681958	     -0.76171948	      2.05970572	      0.14757842	     -1.39251484	      2.05970572	      0.10266442	     -1.39251484	      1.69622824	      0.08341428	     -1.16789351	      1.57506908	      0.05132772	     -0.88714547	      1.45390992	      0.64163241	     -6.47873917	     10.78161443	      0.00000000	      0.00000000	      9.85790929	      6.68480629	    -20.19217416	      7.30702392	     -1.57583295	     23.43962622	     41.28416954	     66.95029996	     -5.89736913	      0.62264305	     13.60446310	     -1.59949284	     43.36480963	     33.82541325	     71.45834221	    -16.18684040	    -10.51364243
      1.50000000	      7.46542245	    -12.28889746	     95.48775655	      0.23835609	      0.85908422	      0.68012343	     16.31044457	      6.30205101	      1.42823850	      9.75076872	      0.17018302	     21.47367505	      0.07777080	      0.00000000	     17.75425101	     -8.25093855	      1.16241037	     11.85996077	      0.20699536	     24.27408267	     -0.68143378	      0.00000000	      0.09700626	     -0.41343930	      2.01908659	      0.18015033	     -0.54987427	      2.14527951	      0.15937159	     -1.00523632	      2.14527951	      0.11086846	     -1.00523632	      1.76670077	      0.09008002	     -0.84308543	      1.64050786	      0.05542938	     -0.64041748	      1.51431495	      0.69290603	     -4.67690809	     11.22955391	      0.00000000	      0.00000000	     10.05066205	      7.18672651	    -19.99515058	      6.98640791	     -0.83748299	     23.28086329	     40.26122992	     68.52881714	     -5.74059584	      0.40275094	     13.57524534	     -0.87552120	     43.96661504	     34.50458712	     71.58380832	    -16.85763941	     -9.15349526
      1.53125000	      8.05364937	    -12.67448655	     95.48665910	      0.23356114	      0.85840675	      0.68247794	     17.08629684	      6.54188762	      1.09527715	     10.10988240	      0.17645073	     21.34650696	      0.22030637	      0.00000000	     18.67030207	     -8.54005616	      1.18437304	     12.59937256	      0.21990053	     24.54404628	     -0.92194509	      0.00000000	      0.10178482	     -0.25538521	      2.06017397	      0.18902459	     -0.33966233	      2.18893484	      0.16722228	     -0.62094359	      2.18893484	      0.11632987	     -0.62094359	      1.80265222	      0.09451738	     -0.52078152	      1.67389135	      0.05815985	     -0.39559169	      1.54513048	      0.72703879	     -2.88896855	     11.45806957	      0.00000000	      0.00000000	     10.60363828	      7.16143320	    -19.23540915	      7.12574073	     -0.42389219	     24.25086585	     39.14938929	     69.71525956	     -6.43293986	      0.30259296	     13.87832105	     -0.18914252	     44.25620864	     35.07214003	     71.50234211	    -16.59369140	     -8.63927590
      1.56250000	      8.48457857	    -13.06344692	     95.86769202	      0.22813131	      0.85764719	      0.68506981	     17.91011226	      6.45048958	     -0.01312532	     10.57082449	      0.18449569	     21.46666651	      0.98538502	      0.00000000	     19.67579267	     -8.55084322	      1.37078003	     13.32286936	      0.23252794	     24.68148393	     -0.85829915	      0.00000000	      0.09545760	     -0.09260463	      1.93171577	      0.17727431	     -0.12316416	      2.05244800	      0.15682730	     -0.22515890	      2.05244800	      0.10909849	     -0.22515890	      1.69025130	      0.08864193	     -0.18883936	      1.56951906	      0.05454447	     -0.14344457	      1.44878683	      0.68184411	     -1.04756211	     10.74362359	      0.00000000	      0.00000000	     11.22919875	      6.42819406	    -17.71952975	      7.71960333	     -0.01404004	     25.67016042	     37.89901086	     72.96367765	     -7.99512361	      0.41605528	     14.11425020	      0.41908100	     43.71012469	     35.72859226	     70.64924837	    -16.25315907	     -9.07153456
      1.59375000	      8.51848853	    -13.45859431	     95.79847502	      0.22319323	      0.85739372	      0.68753239	     18.69853857	      6.08751150	     -0.62485495	     11.09093447	      0.19357332	     21.53874832	      1.61087201	      0.00000000	     20.48029897	     -8.28219216	      1.10877522	     13.90699832	      0.24272291	     24.45474826	     -0.98123282	      0.00000000	      0.09177479	      0.00876111	      1.90977112	      0.17043496	      0.01165227	      2.02913182	      0.15077680	      0.02130176	      2.02913182	      0.10488941	      0.02130176	      1.67104973	      0.08522207	      0.01786565	      1.55168904	      0.05244012	      0.01357096	      1.43232834	      0.65553815	      0.09910740	     10.62157404	      0.00000000	      0.00000000	     11.81183169	      5.76647841	    -16.54725827	      8.09668910	      0.08246576	     26.84378117	     36.90524147	     75.51360068	     -9.70236415	     -0.54226311	     14.54773199	      0.91287093	     43.45810056	     35.78698807	     70.08474587	    -15.97641663	     -9.51544278
